<svg width="175" height="209" viewBox="0 0 175 209" fill="none" xmlns="http://www.w3.org/2000/svg">
<path d="M12.6733 170.208C14.0813 171.008 15.7773 171.408 17.7613 171.408C19.7453 171.408 21.3453 170.784 22.5613 169.536C23.8093 168.256 24.4333 166.544 24.4333 164.4C24.4333 161.456 23.7453 159.424 22.3693 158.304C20.9933 157.184 18.8493 156.624 15.9373 156.624C15.1053 156.624 13.9533 156.688 12.4813 156.816C12.6093 158.672 12.6733 161.936 12.6733 166.608V170.208ZM8.97725 183.408L9.07325 174.912V165.312C9.07325 160.896 8.86525 157.216 8.44925 154.272C10.8173 153.888 13.2013 153.696 15.6013 153.696C24.1773 153.696 28.4653 157.152 28.4653 164.064C28.4653 167.392 27.4573 169.936 25.4413 171.696C23.4573 173.456 21.2173 174.336 18.7213 174.336C16.2573 174.336 14.2413 173.824 12.6733 172.8V176.256C12.6733 180.576 12.9773 183.744 13.5853 185.76C13.0093 186.016 12.2573 186.144 11.3293 186.144C10.4013 186.144 9.77725 185.936 9.45725 185.52C9.13725 185.104 8.97725 184.4 8.97725 183.408ZM51.4306 174.864C51.4306 178.384 50.4706 181.2 48.5506 183.312C46.6306 185.424 44.1026 186.48 40.9666 186.48C37.8626 186.48 35.3506 185.424 33.4306 183.312C31.5106 181.2 30.5506 178.384 30.5506 174.864C30.5506 171.344 31.5106 168.528 33.4306 166.416C35.3506 164.272 37.8626 163.2 40.9666 163.2C44.1026 163.2 46.6306 164.272 48.5506 166.416C50.4706 168.528 51.4306 171.344 51.4306 174.864ZM40.9666 183.792C43.2066 183.792 44.9506 183.04 46.1986 181.536C47.4466 180.032 48.0706 177.968 48.0706 175.344C48.0706 172.72 47.4306 170.496 46.1506 168.672C44.8706 166.816 43.1266 165.888 40.9186 165.888C38.7106 165.888 36.9826 166.656 35.7346 168.192C34.5186 169.696 33.9106 171.76 33.9106 174.384C33.9106 177.008 34.5346 179.232 35.7826 181.056C37.0306 182.88 38.7586 183.792 40.9666 183.792ZM56.7294 183.408L56.8254 174.912C56.8254 170.336 56.7134 166.592 56.4894 163.68C57.0014 163.584 57.5454 163.536 58.1214 163.536C59.4974 163.536 60.1854 164.144 60.1854 165.36C60.1854 165.424 60.1694 165.648 60.1374 166.032C60.1374 166.384 60.1374 166.72 60.1374 167.04C60.7774 166.048 61.6254 165.168 62.6814 164.4C63.7694 163.6 64.7614 163.2 65.6574 163.2C67.3854 163.2 68.2494 163.824 68.2494 165.072C68.2494 165.68 67.9294 166.4 67.2894 167.232C66.5854 166.624 65.8014 166.32 64.9374 166.32C64.0734 166.32 63.1934 166.672 62.2974 167.376C61.4014 168.08 60.6494 169.008 60.0414 170.16C60.0094 171.248 59.9934 173.616 59.9934 177.264C59.9934 180.912 60.2974 183.744 60.9054 185.76C60.3294 186.016 59.6414 186.144 58.8414 186.144C58.0734 186.144 57.5294 185.936 57.2094 185.52C56.8894 185.104 56.7294 184.4 56.7294 183.408ZM73.358 166.272C73.262 166.272 71.774 166.384 68.894 166.608C68.798 166.32 68.75 165.872 68.75 165.264C68.75 164.624 68.99 164.208 69.47 164.016C69.95 163.792 70.766 163.68 71.918 163.68H73.262C73.198 161.536 73.102 159.744 72.974 158.304C73.454 158.208 73.982 158.16 74.558 158.16C76.094 158.16 76.862 158.768 76.862 159.984C76.862 160.432 76.798 161.68 76.67 163.728C80.734 163.728 83.422 163.648 84.734 163.488C84.862 163.744 84.926 164.16 84.926 164.736C84.926 165.28 84.75 165.664 84.398 165.888C84.078 166.112 83.454 166.24 82.526 166.272C81.63 166.304 79.646 166.32 76.574 166.32C76.51 169.776 76.478 173.152 76.478 176.448C76.478 179.712 76.782 181.776 77.39 182.64C78.03 183.504 79.038 183.936 80.414 183.936C81.822 183.936 83.006 183.456 83.966 182.496C84.542 183.104 84.83 183.712 84.83 184.32C84.83 184.928 84.414 185.44 83.582 185.856C82.75 186.272 81.742 186.48 80.558 186.48C77.902 186.48 76.014 185.712 74.894 184.176C73.806 182.64 73.262 180.352 73.262 177.312C73.326 171.52 73.358 167.84 73.358 166.272ZM89.657 183.648L89.753 166.368C88.697 166.368 87.449 166.448 86.009 166.608C85.913 166.288 85.865 165.856 85.865 165.312C85.865 164.416 86.457 163.904 87.641 163.776C88.345 163.712 89.049 163.68 89.753 163.68C89.753 158.88 90.457 155.632 91.865 153.936C93.145 152.432 95.065 151.68 97.625 151.68C98.777 151.68 99.769 151.856 100.601 152.208C101.433 152.56 101.849 153.04 101.849 153.648C101.849 154.256 101.529 154.992 100.889 155.856C99.801 154.864 98.457 154.368 96.857 154.368C95.257 154.368 94.201 154.928 93.689 156.048C93.177 157.168 92.921 158.96 92.921 161.424V163.68C96.025 163.68 98.201 163.616 99.449 163.488C99.577 163.744 99.641 164.16 99.641 164.736C99.641 165.28 99.465 165.664 99.113 165.888C98.793 166.112 98.185 166.24 97.289 166.272C96.425 166.304 94.969 166.32 92.921 166.32V176.304C92.921 180.56 93.225 183.712 93.833 185.76C93.257 186.016 92.585 186.144 91.817 186.144C91.049 186.144 90.489 185.952 90.137 185.568C89.817 185.184 89.657 184.544 89.657 183.648ZM121.884 174.864C121.884 178.384 120.924 181.2 119.004 183.312C117.084 185.424 114.556 186.48 111.42 186.48C108.316 186.48 105.804 185.424 103.884 183.312C101.964 181.2 101.004 178.384 101.004 174.864C101.004 171.344 101.964 168.528 103.884 166.416C105.804 164.272 108.316 163.2 111.42 163.2C114.556 163.2 117.084 164.272 119.004 166.416C120.924 168.528 121.884 171.344 121.884 174.864ZM111.42 183.792C113.66 183.792 115.404 183.04 116.652 181.536C117.9 180.032 118.524 177.968 118.524 175.344C118.524 172.72 117.884 170.496 116.604 168.672C115.324 166.816 113.58 165.888 111.372 165.888C109.164 165.888 107.436 166.656 106.188 168.192C104.972 169.696 104.364 171.76 104.364 174.384C104.364 177.008 104.988 179.232 106.236 181.056C107.484 182.88 109.212 183.792 111.42 183.792ZM127.23 183.648L127.327 169.92V164.352C127.327 156.8 127.199 152.176 126.943 150.48C127.455 150.384 128.015 150.336 128.623 150.336C130.095 150.336 130.831 150.944 130.831 152.16C130.831 152.288 130.815 153.136 130.783 154.704C130.591 160.528 130.495 165.232 130.495 168.816V176.304C130.495 180.56 130.799 183.712 131.407 185.76C130.831 186.016 130.159 186.144 129.391 186.144C128.623 186.144 128.063 185.952 127.711 185.568C127.391 185.184 127.23 184.544 127.23 183.648ZM137.689 183.408L137.785 174.912C137.785 170.336 137.673 166.592 137.449 163.68C137.961 163.584 138.505 163.536 139.081 163.536C140.585 163.536 141.337 164.144 141.337 165.36C141.337 165.52 141.305 166.16 141.241 167.28C141.049 170.704 140.953 174.144 140.953 177.6C140.953 181.024 141.257 183.744 141.865 185.76C141.289 186.016 140.601 186.144 139.801 186.144C139.033 186.144 138.489 185.936 138.169 185.52C137.849 185.104 137.689 184.4 137.689 183.408ZM141.769 158.448C141.769 159.152 141.513 159.76 141.001 160.272C140.489 160.752 139.897 160.992 139.225 160.992C138.585 160.992 138.025 160.752 137.545 160.272C137.065 159.792 136.825 159.184 136.825 158.448C136.825 157.712 137.081 157.104 137.593 156.624C138.105 156.112 138.681 155.856 139.321 155.856C139.993 155.856 140.569 156.112 141.049 156.624C141.529 157.104 141.769 157.712 141.769 158.448ZM167.54 174.864C167.54 178.384 166.58 181.2 164.66 183.312C162.74 185.424 160.212 186.48 157.076 186.48C153.972 186.48 151.46 185.424 149.54 183.312C147.62 181.2 146.66 178.384 146.66 174.864C146.66 171.344 147.62 168.528 149.54 166.416C151.46 164.272 153.972 163.2 157.076 163.2C160.212 163.2 162.74 164.272 164.66 166.416C166.58 168.528 167.54 171.344 167.54 174.864ZM157.076 183.792C159.316 183.792 161.06 183.04 162.308 181.536C163.556 180.032 164.18 177.968 164.18 175.344C164.18 172.72 163.54 170.496 162.26 168.672C160.98 166.816 159.236 165.888 157.028 165.888C154.82 165.888 153.092 166.656 151.844 168.192C150.628 169.696 150.02 171.76 150.02 174.384C150.02 177.008 150.644 179.232 151.892 181.056C153.14 182.88 154.868 183.792 157.076 183.792Z" fill="#082879" fill-opacity="0.72"/>
<path d="M48 3.5H127V0.5H48V3.5ZM138.5 15V126H141.5V15H138.5ZM127 137.5H48V140.5H127V137.5ZM36.5 126V15H33.5V126H36.5ZM48 137.5C41.6487 137.5 36.5 132.351 36.5 126H33.5C33.5 134.008 39.9919 140.5 48 140.5V137.5ZM138.5 126C138.5 132.351 133.351 137.5 127 137.5V140.5C135.008 140.5 141.5 134.008 141.5 126H138.5ZM127 3.5C133.351 3.5 138.5 8.64873 138.5 15H141.5C141.5 6.99187 135.008 0.5 127 0.5V3.5ZM48 0.5C39.9919 0.5 33.5 6.99187 33.5 15H36.5C36.5 8.64873 41.6487 3.5 48 3.5V0.5ZM98.5 37.5C98.5 43.5751 93.5751 48.5 87.5 48.5V51.5C95.232 51.5 101.5 45.232 101.5 37.5H98.5ZM87.5 48.5C81.4249 48.5 76.5 43.5751 76.5 37.5H73.5C73.5 45.232 79.768 51.5 87.5 51.5V48.5ZM76.5 37.5C76.5 31.4249 81.4249 26.5 87.5 26.5V23.5C79.768 23.5 73.5 29.768 73.5 37.5H76.5ZM87.5 26.5C93.5751 26.5 98.5 31.4249 98.5 37.5H101.5C101.5 29.768 95.232 23.5 87.5 23.5V26.5ZM82 51.5H93V48.5H82V51.5ZM101.5 60V68H104.5V60H101.5ZM98 71.5H77V74.5H98V71.5ZM73.5 68V60H70.5V68H73.5ZM77 71.5C75.067 71.5 73.5 69.933 73.5 68H70.5C70.5 71.5899 73.4101 74.5 77 74.5V71.5ZM101.5 68C101.5 69.933 99.933 71.5 98 71.5V74.5C101.59 74.5 104.5 71.5899 104.5 68H101.5ZM93 51.5C97.6944 51.5 101.5 55.3056 101.5 60H104.5C104.5 53.6487 99.3513 48.5 93 48.5V51.5ZM82 48.5C75.6487 48.5 70.5 53.6487 70.5 60H73.5C73.5 55.3056 77.3056 51.5 82 51.5V48.5ZM56 98.5H118V95.5H56V98.5ZM56 108.5H118V105.5H56V108.5Z" fill="#000464"/>
</svg>
